<?xml version="1.0" encoding="UTF-8"?>
<svg width="527px" height="122px" viewBox="0 0 527 122" version="1.1" xmlns="http://www.w3.org/2000/svg" xmlns:xlink="http://www.w3.org/1999/xlink">
    <!-- Generator: Sketch 53.2 (72643) - https://sketchapp.com -->
    <title>PIXEL</title>
    <desc>Created with Sketch.</desc>
    <g id="Page-1" stroke="none" stroke-width="1" fill="none" fill-rule="evenodd">
        <path d="M49.8480006,79.826 L25.4940006,79.826 L25.4940006,122 L0.34800061,122 L0.34800061,0.428 L49.8480006,0.428 C75.5880006,0.428 92.6160006,14.288 92.6160006,40.226 C92.6160006,65.966 75.5880006,79.826 49.8480006,79.826 Z M67.6680006,40.226 C67.6680006,29.336 61.3320006,22.01 48.2640006,22.01 L25.4940006,22.01 L25.4940006,58.244 L48.2640006,58.244 C61.3320006,58.244 67.6680006,50.72 67.6680006,40.226 Z M152.058,0.428 L152.058,122 L126.714,122 L126.714,0.428 L152.058,0.428 Z M224.12863,59.9616926 L238.781133,39.7653747 L238.824,39.83 L265.554,0.428 L293.274,0.428 L253.08,59.63 L295.254,122 L266.742,122 L238.23,79.826 L209.916,122 L181.998,122 L224.172,60.026 L224.12863,59.9616926 Z M205.248605,31.9671726 L183.978,0.428 L212.688,0.428 L221.189675,13.2449198 L205.248605,31.9671726 Z M325.392,0.428 L407.958,0.428 L407.958,22.604 L350.34,22.604 L350.34,49.136 L402.612,49.136 L402.612,70.718 L350.34,70.718 L350.34,99.626 L407.958,99.626 L407.958,122 L325.392,122 L325.392,0.428 Z M444.629999,122 L444.629999,0.428 L469.973999,0.428 L469.973999,99.626 L526.601999,99.626 L526.601999,122 L444.629999,122 Z" id="PIXEL" fill="#FFFFFF"></path>
    </g>
</svg>